<svg width="12" height="7" viewBox="0 0 12 7" fill="none" xmlns="http://www.w3.org/2000/svg">
<g id="Drop Down">
<path id="Shape" d="M6.36051 4.85257L2.0961 0.588153C1.78146 0.273513 1.27132 0.273513 0.956683 0.588153C0.642043 0.902793 0.642043 1.41293 0.956683 1.72757L5.79081 6.56169C6.10545 6.87633 6.61558 6.87633 6.93022 6.56169L11.7643 1.72757C12.079 1.41293 12.079 0.902793 11.7643 0.588153C11.4497 0.273513 10.9396 0.273513 10.6249 0.588153L6.36051 4.85257Z" fill="#646464"/>
<mask id="mask0_1_24" style="mask-type:luminance" maskUnits="userSpaceOnUse" x="0" y="0" width="13" height="7">
<path id="Shape_2" d="M6.36051 4.85257L2.0961 0.588153C1.78146 0.273513 1.27132 0.273513 0.956683 0.588153C0.642043 0.902793 0.642043 1.41293 0.956683 1.72757L5.79081 6.56169C6.10545 6.87633 6.61558 6.87633 6.93022 6.56169L11.7643 1.72757C12.079 1.41293 12.079 0.902793 11.7643 0.588153C11.4497 0.273513 10.9396 0.273513 10.6249 0.588153L6.36051 4.85257Z" fill="white"/>
</mask>
<g mask="url(#mask0_1_24)">
</g>
</g>
</svg>
