<svg width="23" height="22" viewBox="0 0 23 22" fill="none" xmlns="http://www.w3.org/2000/svg">
<g id="More">
<path id="Border" d="M11.3491 21.7859C17.2867 21.7859 22.1 16.9726 22.1 11.035C22.1 5.09744 17.2867 0.284094 11.3491 0.284094C5.41157 0.284094 0.598242 5.09744 0.598242 11.035C0.598242 16.9726 5.41157 21.7859 11.3491 21.7859Z" stroke="#5C5C5C" stroke-width="0.2"/>
<g id="chevron-down">
<path id="Shape" d="M11.3496 11.974L8.66514 8.84207C8.46707 8.61099 8.14594 8.61099 7.94787 8.84207C7.7498 9.07315 7.7498 9.44781 7.94787 9.67889L10.991 13.2292C11.189 13.4603 11.5102 13.4603 11.7082 13.2292L14.7514 9.67889C14.9494 9.44781 14.9494 9.07315 14.7514 8.84207C14.5533 8.61099 14.2322 8.61099 14.0341 8.84207L11.3496 11.974Z" fill="#565656"/>
<mask id="mask0_1_11" style="mask-type:luminance" maskUnits="userSpaceOnUse" x="7" y="8" width="8" height="6">
<path id="Shape_2" d="M11.3496 11.974L8.66514 8.84207C8.46707 8.61099 8.14594 8.61099 7.94787 8.84207C7.7498 9.07315 7.7498 9.44781 7.94787 9.67889L10.991 13.2292C11.189 13.4603 11.5102 13.4603 11.7082 13.2292L14.7514 9.67889C14.9494 9.44781 14.9494 9.07315 14.7514 8.84207C14.5533 8.61099 14.2322 8.61099 14.0341 8.84207L11.3496 11.974Z" fill="white"/>
</mask>
<g mask="url(#mask0_1_11)">
</g>
</g>
</g>
</svg>
